# xmcd
# 
# Track frame offsets:
#     150
#     14753
#     35456
#     51303
#     71317
#     93856
#     120668
#     145474
#     172940
#     189499
# 
# Disc length: 2774
# 
# Revision: 1
# Processed by: cddbd v1.5.2PL0 Copyright (c) Steve Scherf et al.
# Submitted via: BonkEnc v1.0.0
# 
DISCID=860ad40a
DTITLE=Terence Trent D'Arby - Collections
DYEAR=2006
DGENRE=
TTITLE0=If You Let Me Stay
TTITLE1=Sign Your Name
TTITLE2=Wishing Well
TTITLE3=To Know Someone Deeply is to Know Someone Softly
TTITLE4=This Side of Love
TTITLE5=I'll Be Alright
TTITLE6=Do You Love Me Like You Say?
TTITLE7=Turn The Page
TTITLE8=She Kissed Me
TTITLE9=Let Her Down Easy
EXTD=
EXTT0=
EXTT1=
EXTT2=
EXTT3=
EXTT4=
EXTT5=
EXTT6=
EXTT7=
EXTT8=
EXTT9=
PLAYORDER=
